		<svg xmlns="http://www.w3.org/2000/svg" viewBox="-5 30 630 180" width="100%">
			<title>Basic W3C Recommendation Track</title>
			<!-- basic maturity states -->
			<g role="list">
			<!-- FPWD -->
				<g role="listitem" fill="#060">
					<a href="#wd-1">
						<rect role="img" fill="white" y="122" width="57" height="45">
							<title>First Public Working Draft (FPWD) - Exclusion opportunity</title>
						</rect>
						<text font-size="8">
							<tspan aria-hidden="true" y="132" x="0">First Public WD</tspan>
							<tspan x="0" y="152">WG Decision +</tspan>
							<tspan x="0" y="160">Team Approval</tspan>
						</text>
						<path d="M0,140h53" fill="none" stroke="#060"></path>
						<polygon points="47,136 57,140 47,144"></polygon>
					</a>
				</g>
			<!-- WD -->
				<g role="listitem">
					<a href="#cr-1">
						<ellipse role="img" id="wd-1" ry="18" rx="38" cy="140" cx="97" stroke="black" fill="#fff">
						<title>Working Draft (WD)</title>
						</ellipse>
						<text aria-hidden="true" font-size="14" font-weight="bold"
						      y="144" x="97" text-anchor="middle">WD</text>
					</a>
					<g role="list">
					<!-- New WD -->
						<g role="listitem">
							<a href="#wd-1">
								<g role="img">
									<title>Publish a new Working Draft</title>
								</g>
								<text font-size="8" text-anchor="middle">
									<tspan x="97" y="100">WG Decision</tspan>
								</text>
								<path d="M78,124C73,114 79,104 97,104 108,104 115,108 117,114" fill="none" stroke="black" stroke-dasharray="6 2"></path>
								<polygon points="120,114 116,124 114,113"></polygon>
							</a>
						</g>
					<!-- Advance to CRS -->
						<g role="listitem" fill="#060">
							<a href="#cr-1">
								<g role="img">
									<title>Advance to Candidate Recommendation</title>
								</g>
								<text x="135" y="129" font-size="8">WG Decision +</text>
								<text x="135" y="137" font-size="8">Team Approval</text>
								<path stroke="#060" d="M135,140h81"></path>
								<polygon points="211,136 221,140 211,144"></polygon>
							</a>
						</g>
					</g>
				</g>
			<!-- CRS -->
				<g role="listitem">
					<a href="#pr-1">
						<ellipse role="img" id="cr-1" ry="18" rx="38" cy="140" cx="260" stroke="black" fill="#fff">
						<title>Candidate Recommendation Snapshot (CRS) - Patent Policy exclusion opportunity</title>
						</ellipse>
						<text aria-hidden="true" font-size="14" font-weight="bold"
						      y="144" x="260" text-anchor="middle" >CRS</text>
					</a>
					<g role="list">
					<!-- CRS to CRD -->
						<g role="listitem">
							<a href="#crd-1">
								<g role="img">
									<title>Publish revised Candidate Recommendation Draft</title>
								</g>
								<text font-size="8" text-anchor="end">
									<tspan x="232" y="118">WG</tspan><tspan x="232" y="126">Decision</tspan>
								</text>
								<path stroke="#000" d="M234,127v-34"></path>
								<polygon points="234,92 230,102 238,102"></polygon>
							</a>
						</g>
					<!-- Update CRS in place -->
						<g role="listitem">
							<a href="#cr-1">
								<g role="img">
									<title>Publish revised Candidate Recommendation Snapshot</title>
								</g>
								<text font-size="8">
									<tspan x="290" y="99">WG Decision</tspan>
									<tspan x="290" y="107">Team Approval</tspan>
								</text>
								<path stroke="#000" d="M242,124C238,114 244,104 260,104 271,104 285,108 286,117" stroke-dasharray="6 2" fill="none"></path>
							</a>
						</g>
					<!-- Advance to PR -->
						<g role="listitem" fill="#060">
						<a href="#pr-1">
							<g role="img">
							<title>Advance to Proposed Recommendation</title>
							</g>
							<text x="298" y="121" font-size="8">WG Decision +</text>
							<text x="298" y="129" font-size="8">Team Approval +</text>
							<text x="298" y="137" font-size="8">AC Review</text>
							<path d="M298,140h77" stroke="#060"></path>
							<polygon points="374,136 384,140 374,144"></polygon>
						</a>
						</g>
					<!-- Return to WD -->
						<g role="listitem" fill="#900">
							<a href="#wd-1">
								<g role="img">
								<title>Return to Working Draft</title>
								</g>
								<text font-size="8" text-anchor="end">
									<tspan x="228" y="157">WG Decision</tspan>
									<tspan font-size="6" x="228" y="165">(or Team Decision with AB+TAG Approval)</tspan>
								</text>
								<path d="M140,147h84" stroke-dasharray="4 4" stroke="#900"></path>
								<polygon points="140,145 133,147 140,149"></polygon>
							</a>
						</g>
					</g>
				</g>
			<!-- CDR -->
				<g role="listitem">
					<a href="#cr-1">
						<ellipse role="img" id="crd-1" ry="18" rx="38" cy="80" cx="260" stroke="black" fill="#fff">
						<title>Candidate Recommendation Draft (CRD)</title>
						</ellipse>
						<text aria-hidden="true" font-size="14" font-weight="bold"
						      y="84" x="260" text-anchor="middle">CRD</text>
					</a>
					<g role="list">
					<!-- Update CRD in place -->
						<g role="listitem">
							<a href="#crd-1">
								<g role="img">
									<title>Publish revised Candidate Recommendation Draft</title>
								</g>
								<text font-size="8" text-anchor="middle">
									<tspan x="259" y="41">WG Decision</tspan>
								</text>
								<path stroke="#000" d="M242,64C238,54 244,44 260,44 271,44 277,48 279,54" fill="none" stroke-dasharray="6 2"></path>
								<polygon points="282,54 277,64 275,53"></polygon>
							</a>
						</g>
					<!-- CRD to CRS -->
						<g role="listitem">
							<a href="#cr-1">
								<g role="img">
									<title>Publish revised Candidate Recommendation Snapshot</title>
								</g>
								<text font-size="8">
									<tspan x="290" y="99">WG Decision +</tspan>
									<tspan x="290" y="107">Team Approval</tspan>
								</text>
								<path stroke="#000" d="M286,127v-34"></path>
								<polygon points="286,128 282,118 290,118"></polygon>
							</a>
						</g>
					</g>
				</g>
			<!-- PR -->
				<g role="listitem">
					<a href="#rec-1">
						<ellipse role="img" id="pr-1" ry="18" rx="28" cy="140" cx="413" stroke="black" fill="#fff">
						<title>Proposed Recommendation (PR) — AC Review</title>
						</ellipse>
						<text aria-hidden="true" font-size="14" font-weight="bold"
						      y="144" x="413" text-anchor="middle">PR</text>
						<text area-hidden="true" font-size="6" y="150" x="413" text-anchor="middle">AC Review</text>
					</a>
					<g role="list">
					<!-- Advance to Rec -->
						<g role="listitem" fill="#060">
							<a href="#rec-1">
								<g role="img">
									<title>Advance to Recommendation</title>
								</g>
								<text x="300" y="138" font-size="8">
									<tspan x="445" y="134">W3C Decision</tspan>
								</text>
								<path d="M441,140h100" stroke="#060"></path>
								<polygon points="534,136 544,140 534,144"></polygon>
							</a>
						</g>
					<!-- Return to CRS -->
						<g role="listitem" fill="#900">
							<a href="#cr-1">
								<g role="img">
									<title>Return to Candidate Recommendation Snapshot</title>
								</g>
								<text font-size="8" text-anchor="end">
									<tspan x="385" y="160">W3C Decision</tspan>
								</text>
								<path d="M301,147h88" stroke-dasharray="4 4" stroke="#900"></path>
								<polygon points="301,145 296,147 301,149"></polygon>
							</a>
						</g>
					<!-- Return to WD -->
						<g role="listitem" fill="#900">
							<a href="#wd-1">
								<g role="img">
									<title>Return to Working Draft</title>
								</g>
								<text font-size="8" text-anchor="end">
									<tspan x="410" y="185">W3C Decision</tspan>
								</text>
								<path d="M413,158v32h-316v-26" stroke-dasharray="4 4" stroke="#900" fill="none"></path>
								<polygon points="95,164 97,159 99,164"></polygon>
							</a>
						</g>
					</g>
				</g>
			<!-- Rec -->
				<g role="listitem">
					<ellipse role="img" id="rec-1" ry="18" rx="28" cy="140" cx="573" stroke="black" fill="#fff" stroke-width="2">
						<title>Recommendation (Rec)</title>
					</ellipse>
					<text aria-hidden="true" font-size="16" font-weight="bold"
					      y="144" x="573" text-anchor="middle" stroke-width=".3">REC</text>
				</g>
			</g>
		</svg>
